<?xml version="1.0" encoding="UTF-8"?><svg id="a" xmlns="http://www.w3.org/2000/svg" viewBox="0 0 491.42 352.27"><defs><style>.b{fill:#fff;}</style></defs><path class="b" d="M341.56,0h-37.98c-17.46,0-31.14,17.82-31.14,40.56V175h23.41V40.56c0-10.47,5.08-17.16,7.73-17.16h37.98c2.66,0,7.73,6.68,7.73,17.16V181.69h-76.86v89.49h23.41v-66.08h53.45v66.08h23.41V40.56c0-22.75-13.68-40.56-31.14-40.56Z"/><path class="b" d="M460.28,0h-69.12V175h23.41V23.41h45.71c2.66,0,7.73,6.68,7.73,17.16V230.71c0,10.47-5.08,17.15-7.73,17.15h-45.71v-66.17h-23.41v89.58h69.12c17.46,0,31.14-17.82,31.14-40.56V40.56c0-22.75-13.68-40.56-31.14-40.56Z"/><g><rect class="b" y="181.69" width="23.41" height="89.71"/><rect class="b" x="230.57" y="181.69" width="23.41" height="89.71"/><path class="b" d="M222.84,0h-37.98c-17.46,0-31.14,17.82-31.14,40.56V232.29c0,10.47-5.08,17.16-7.73,17.16h-37.98c-2.66,0-7.73-6.68-7.73-17.16V40.56C100.27,17.82,86.59,0,69.12,0H31.14C13.39,0,0,18.44,0,42.9V175H23.41V42.9c0-13.5,5.6-19.49,7.73-19.49h37.98c2.66,0,7.73,6.68,7.73,17.15V232.29c0,22.75,13.68,40.56,31.14,40.56h37.98c17.46,0,31.14-17.82,31.14-40.56V40.56c0-10.47,5.08-17.15,7.73-17.15h37.98c2.13,0,7.73,5.99,7.73,19.49V175h23.41V42.9c0-24.46-13.39-42.9-31.14-42.9Z"/><rect class="b" x="197.95" y="21.95" width="13.38" height="249.45"/><rect class="b" x="42.94" y="21.95" width="13.38" height="249.45"/></g><g><path class="b" d="M42.94,352.27v-22.9h22.4v3.08h-18.51v6.37h11.31v3.03h-11.31v7.28h18.69v3.14h-22.58Z"/><path class="b" d="M106.5,329.37c2.14,0,3.92,.14,5.34,.42,1.42,.28,2.61,.73,3.6,1.35,1.5,.97,2.67,2.3,3.53,3.99,.86,1.69,1.29,3.54,1.29,5.55,0,2.14-.42,4.06-1.27,5.77-.84,1.71-2.03,3.06-3.55,4.04-.95,.61-2.14,1.05-3.57,1.34-1.42,.29-3.21,.43-5.37,.43h-12.81v-22.9h12.81Zm-.55,3.12h-8.36v16.59h8.36c3.77,0,6.44-.65,7.99-1.95,1.56-1.3,2.33-3.45,2.33-6.46s-.79-4.99-2.38-6.27c-1.58-1.28-4.23-1.92-7.95-1.92Z"/><path class="b" d="M149.05,352.27v-22.9h3.89v22.9h-3.89Z"/><path class="b" d="M192.96,332.49v19.78h-3.87v-19.78h-10.63v-3.12h25.18v3.12h-10.67Z"/><path class="b" d="M228.8,334.78c0-2.08,.38-3.5,1.13-4.27,.76-.77,2.2-1.15,4.33-1.15h16.09c2.1,0,3.53,.38,4.28,1.14,.76,.76,1.13,2.18,1.13,4.28v12.07c0,2.11-.38,3.54-1.13,4.29-.76,.75-2.18,1.13-4.28,1.13h-16.09c-2.13,0-3.57-.38-4.33-1.15-.76-.77-1.13-2.19-1.13-4.27v-12.07Zm3.87,14.3h19.26v-16.59h-19.26v16.59Z"/><path class="b" d="M286.48,352.27v-22.9h18.75c1.75,0,3,.35,3.77,1.05,.77,.7,1.16,1.83,1.16,3.39v5.11c0,1.55-.38,2.67-1.16,3.37-.77,.7-2.03,1.05-3.77,1.05h-3.41l10.63,8.93h-5.77l-9.46-8.93h-6.85v8.93h-3.89Zm17.23-19.93h-13.34v8.04h13.34c.97,0,1.63-.17,1.98-.52s.53-.95,.53-1.82v-3.34c0-.87-.18-1.48-.54-1.83-.36-.35-1.02-.53-1.97-.53Z"/><path class="b" d="M339.77,352.27v-22.9h3.89v22.9h-3.89Z"/><path class="b" d="M370.13,352.27l12.7-22.9h4.16l12.92,22.9h-4.27l-2.97-5.63h-15.74l-2.97,5.63h-3.83Zm8.43-8.56h12.52l-6.27-11.72-6.25,11.72Z"/><path class="b" d="M426.36,352.27v-22.9h3.89v19.71h17.61v3.18h-21.5Z"/></g><g><path class="b" d="M42.68,319.32v-38.49h34.57c3.23,0,5.55,.59,6.98,1.76,1.42,1.17,2.13,3.07,2.13,5.71v4.62c0,1.75-.56,3.19-1.69,4.31-1.13,1.13-2.76,1.88-4.89,2.27,2.16,.36,3.84,1.18,5.04,2.47,1.2,1.29,1.8,2.91,1.8,4.87v4.93c0,2.52-.99,4.41-2.98,5.67-1.99,1.26-4.98,1.89-8.98,1.89h-32Zm30.26-32.22h-21.02v9.11h21.02c1.63,0,2.74-.21,3.33-.62,.59-.41,.89-1.13,.89-2.13v-3.64c0-1.01-.29-1.71-.87-2.11s-1.7-.6-3.36-.6Zm0,15.47h-21.02v9.82h21.02c1.78,0,2.98-.25,3.62-.76,.64-.5,.96-1.39,.96-2.67v-2.93c0-1.27-.32-2.17-.96-2.69-.64-.52-1.84-.78-3.62-.78Z"/><path class="b" d="M130.24,289.9c0-3.5,.68-5.88,2.04-7.15,1.36-1.27,4.01-1.91,7.95-1.91h29.77c3.97,0,6.63,.64,7.98,1.91,1.35,1.27,2.02,3.66,2.02,7.15v20.31c0,3.53-.69,5.93-2.07,7.2-1.38,1.27-4.02,1.91-7.93,1.91h-29.77c-3.94,0-6.59-.64-7.95-1.91-1.36-1.27-2.04-3.67-2.04-7.2v-20.31Zm9.38,22.04h31.02v-24.04h-31.02v24.04Z"/><path class="b" d="M223.97,289.9c0-3.5,.68-5.88,2.04-7.15,1.36-1.27,4.01-1.91,7.95-1.91h29.77c3.97,0,6.63,.64,7.98,1.91,1.35,1.27,2.02,3.66,2.02,7.15v20.31c0,3.53-.69,5.93-2.07,7.2-1.38,1.27-4.02,1.91-7.93,1.91h-29.77c-3.94,0-6.59-.64-7.95-1.91-1.36-1.27-2.04-3.67-2.04-7.2v-20.31Zm9.38,22.04h31.02v-24.04h-31.02v24.04Z"/><path class="b" d="M318.63,319.32v-38.49h9.47v15.55l22.44-15.55h13.6l-26.62,17.82,29.6,20.66h-14.84l-24.18-17.38v17.38h-9.47Z"/><path class="b" d="M439.29,287.72h-26.49v8.13h25.06c3.94,0,6.59,.63,7.95,1.89,1.36,1.26,2.04,3.65,2.04,7.18v5.29c0,3.53-.7,5.93-2.09,7.2-1.39,1.27-4.03,1.91-7.91,1.91h-24.98c-3.97,0-6.66-.64-8.07-1.91-1.41-1.27-2.11-3.67-2.11-7.2v-1.07l8.35-1.56v4.53h28.31v-8.8h-24.93c-3.94,0-6.61-.64-8-1.93-1.39-1.29-2.09-3.68-2.09-7.18v-4.31c0-3.47,.7-5.84,2.09-7.13,1.39-1.29,4.06-1.93,8-1.93h22.84c3.88,0,6.54,.62,7.98,1.84,1.44,1.23,2.16,3.4,2.16,6.51v.93l-8.13,1.73v-4.13Z"/></g></svg>